<svg width="72" height="37" viewBox="0 0 72 37" fill="none" xmlns="http://www.w3.org/2000/svg">
    <g clip-path="url(#clip0_4775_4572)">
    <path d="M4.38508 1.50195H0.224609V29.4907H19.8411V25.4499L4.48143 28.5219L4.38508 1.50195Z" fill="white"/>
    <path d="M45.0811 2.4131L48.7894 0.559326V29.4906H45.0811V2.4131Z" fill="white"/>
    <path d="M52.0029 10.0631L61.406 29.4138H62.5968C62.6956 29.198 65.0723 24.0324 65.223 23.7014L65.2255 23.6966C65.228 23.6942 71.1302 10.8545 71.5132 10.0248C70.5422 10.0224 69.5738 10.02 68.6028 10.0176L63.5332 25.4641L56.0201 10.0176L52.0029 10.0631Z" fill="white"/>
    <path d="M64.9937 24.2026C65.2803 24.5216 66.6292 26.09 66.2957 28.0612C66.1054 29.1836 65.4606 29.8958 64.7615 30.6632C63.0172 32.5842 60.8011 33.1285 60.1909 33.27C59.756 33.3707 59.3854 33.4235 59.1211 33.4523L59.215 35.1454C60.4552 35.0806 62.9085 34.7641 65.1271 33.0758C65.9449 32.4547 67.0937 31.5554 67.652 29.9438C67.7904 29.5457 68.3067 27.9821 67.6545 26.2914C67.279 25.3202 66.6737 24.7086 66.5526 24.5911C66.0931 24.1379 65.6237 23.8621 65.2951 23.7014L64.9937 24.2026Z" fill="white"/>
    <path d="M58.2886 36.3301H54.3999C53.5081 36.3301 52.7842 35.6274 52.7842 34.7617V33.9607C52.7842 33.095 53.5081 32.3923 54.3999 32.3923H58.2886C59.1805 32.3923 59.9044 33.095 59.9044 33.9607V34.7617C59.9044 35.6274 59.1805 36.3301 58.2886 36.3301Z" fill="#0099FF"/>
    <path d="M22.6309 10.0151H26.3071C26.3343 14.0848 26.3614 18.1545 26.3911 22.2241C26.3911 22.2241 26.5023 27.9869 32.3427 27.3585C32.3427 27.3585 36.3303 26.4664 36.2982 23.3488V10.1278H39.9892V29.4905H36.3056V24.9988C36.3056 24.9988 34.2723 30.867 28.3132 29.7231C22.3517 28.5792 22.747 23.6966 22.747 23.6966L22.6309 10.0151Z" fill="white"/>
    </g>
    <defs>
    <clipPath id="clip0_4775_4572">
    <rect width="72" height="37" fill="white"/>
    </clipPath>
    </defs>
    </svg>