<svg width="69" height="37" viewBox="0 0 69 37" fill="none" xmlns="http://www.w3.org/2000/svg">
    <g clip-path="url(#clip0_2_149)">
    <path d="M5.02344 2.41443H1.09961V29.6087H19.6004V25.6825L5.11432 28.6673L5.02344 2.41443Z" fill="#0D0D0D"/>
    <path d="M43.4043 3.29986L46.9017 1.49872V29.6087H43.4043V3.29986Z" fill="#0D0D0D"/>
    <path d="M49.9336 10.7327L58.8018 29.5341H59.9249C60.0181 29.3244 62.2597 24.3054 62.4018 23.9839L62.4041 23.9792C62.4065 23.9769 67.973 11.5017 68.3341 10.6955C67.4184 10.6931 66.505 10.6908 65.5893 10.6885L60.808 25.6965L53.7223 10.6885L49.9336 10.7327Z" fill="#0D0D0D"/>
    <path d="M62.1851 24.4708C62.4554 24.7807 63.7276 26.3046 63.413 28.2199C63.2336 29.3104 62.6254 30.0024 61.966 30.748C60.321 32.6144 58.2309 33.1433 57.6554 33.2808C57.2453 33.3787 56.8958 33.4299 56.6465 33.4579L56.735 35.1029C57.9047 35.04 60.2185 34.7324 62.3109 33.0921C63.0821 32.4886 64.1656 31.6148 64.6922 30.049C64.8227 29.6622 65.3097 28.143 64.6945 26.5003C64.3404 25.5566 63.7695 24.9625 63.6553 24.8483C63.2219 24.4079 62.7792 24.1399 62.4693 23.9838L62.1851 24.4708Z" fill="#0D0D0D"/>
    <path d="M55.8613 36.254H52.1938C51.3526 36.254 50.6699 35.5713 50.6699 34.7301V33.9519C50.6699 33.1108 51.3526 32.428 52.1938 32.428H55.8613C56.7025 32.428 57.3852 33.1108 57.3852 33.9519V34.7301C57.3852 35.5713 56.7025 36.254 55.8613 36.254Z" fill="#6ABEFE"/>
    <path d="M22.2305 10.686H25.6976C25.7232 14.6402 25.7489 18.5943 25.7768 22.5484C25.7768 22.5484 25.8817 28.1476 31.39 27.5371C31.39 27.5371 35.1507 26.6703 35.1204 23.6412V10.7955H38.6015V29.6085H35.1274V25.2443C35.1274 25.2443 33.2098 30.946 27.5896 29.8345C21.9672 28.7231 22.34 23.9791 22.34 23.9791L22.2305 10.686Z" fill="#0D0D0D"/>
    </g>
    <defs>
    <clipPath id="clip0_2_149">
    <rect width="67.9049" height="35.9496" fill="white" transform="translate(0.887695 0.955261)"/>
    </clipPath>
    </defs>
    </svg>
    